#!OML:ASF E:/inclinewalkrobotboard/Project1/Captureday1/Session1/subject1.ASF
:FULLY-SPECIFIED
:DEGREES
201
root 0 0 0 -10.05539649507493 -51.43187066879892 -0.20363935123990057
lowerback 3.4095956540709738 -1.31869967681728 -0.6718820176370455
upperback -1.9454360569187652 -1.7592932418821654 0.5067576172806904
thorax -3.7982100929556637 -0.8734044235181186 1.175810324949629
lowerneck -16.94386606555526 -2.340314619480255 -8.06202049677887
upperneck 0.1784079567693002 -2.9900943824878157 8.656135895993355
head 3.2752010368671503 -1.1867345610018287 3.812740657310181
rclavicle -9.619993642275181E-15 -1.5051795306994042E-16
rhumerus 1.955662819730357 -12.59493759971779 -67.9013993182266
rradius 18.349060915121086
rwrist 57.93969209007125
rhand -7.354877251011434 21.790080847147376
rfingers 7.1250199999999095
rthumb 18.53913939630543 -7.899559341277616
lclavicle -4.3465209468075455E-15 5.1886310797677135E-15
lhumerus -26.25990535228832 -3.0336918653580476 81.4517809233753
lradius 37.62965005682409
lwrist -37.97123653846617
lhand -9.184401131642595 15.096068003871034
lfingers 7.032892527180556
lthumb 16.415417235679037 78.09250854237754
rfemur -12.22440844018346 2.5535295646015967 26.354984919548787
rtibia 55.9842672312376
rfoot 5.961944826472152 -2.0349391359612152
rtoes 15.288384511955703
lfemur 12.565988522967986 -2.622585409823537 -30.90150042426363
ltibia 19.648578392658955
lfoot -18.90596960477113 -0.1865979051095099
ltoes -1.0287082386952386
202
root 0 0 0 -9.892035251423147 -51.54169735509083 -0.28582853588984974
lowerback 3.0784635496731463 -1.3504718974986067 -0.529652225001217
upperback -2.03818417579402 -1.775512525021127 0.5350457140751353
thorax -3.7153975035630147 -0.8808893145448522 1.135362505093123
lowerneck -16.905509514187496 -2.23663636043364 -8.032012633640603
upperneck 0.29468977772025795 -2.849647183236762 8.43731950950481
head 3.297548645613441 -1.1221349854082399 3.74509036940104
rclavicle -9.704949382401751E-15 -1.400055009139174E-16
rhumerus 1.9118531655798507 -12.639759664792484 -67.87448567034473
rradius 18.589863792072116
rwrist 57.763656031179394
rhand -7.396421596707167 21.78016119833478
rfingers 7.125019999999909
rthumb 18.498885311721455 -7.907318398346845
lclavicle -4.792259836725114E-15 5.156955905475092E-15
lhumerus -26.156323436121248 -2.8062403324527203 81.25067662244538
lradius 37.56007550918421
lwrist -37.97454414731307
lhand -9.160751328334808 15.041124434660942
lfingers 7.031303517323036
lthumb 16.433676929796775 78.26895136932589
rfemur -10.757161218834018 3.620510339647905 27.97025488101634
rtibia 48.377482926237896
rfoot 4.462739052526228 -1.9944617243855198
rtoes 15.850674607653806
lfemur 12.324420208825027 -2.6229746928218236 -30.85738560837597
ltibia 19.835331160756482
lfoot -18.779973877660204 -0.1660239931167382
ltoes -0.7364372477323631
203
root 0 0 0 -9.793866362006574 -51.51962127298465 -0.36751052279613955
lowerback 2.877111045878607 -1.358550728754039 -0.44026360853073143
upperback -2.0963277840640138 -1.7704100064874604 0.5454140712516268
thorax -3.667222445248765 -0.8779533298680018 1.101039658097892
lowerneck -16.902930386663787 -2.1911137069119935 -8.005537370670272
upperneck 0.33607008370453606 -2.785354864770039 8.297339656489449
head 3.3083439541415514 -1.0926966393210134 3.6997362195115135
rclavicle -9.773517413496946E-15 -1.5480830018268895E-16
rhumerus 1.9192920374677578 -12.652368911107859 -67.84244140899484
rradius 18.75550907724851
rwrist 57.63708649322385
rhand -7.416993874407423 21.78168728491308
rfingers 7.125019999999909
rthumb 18.478856604190106 -7.9043837794366105
lclavicle -5.0947718808643906E-15 5.038730198584602E-15
lhumerus -26.03874828474134 -2.645686562514257 81.0721879374901
lradius 37.36647371163099
lwrist -38.03774821834352
lhand -9.11255975487678 14.998334850249536
lfingers 7.029980098059769
lthumb 16.47554483669328 78.37118775783128
rfemur -9.951624660116432 4.472785726898899 29.45170838289149
rtibia 41.45950715032723
rfoot 2.3970153978951103 -2.1617980473506915
rtoes 16.05214445512288
lfemur 12.170365793720043 -2.627274839594346 -30.814502044190668
ltibia 19.92645996079039
lfoot -18.68652359540922 -0.1644216228397104
ltoes -0.6015939637249064
204
root 0 0 0 -9.681870652535467 -51.43601545907396 -0.4590562030497329
lowerback 2.668017093048884 -1.3620100758166762 -0.34163346317611
upperback -2.1546796940565236 -1.7576753731736394 0.5555780400111451
thorax -3.6153642994852446 -0.8711747234140741 1.0611386660529478
lowerneck -16.902273491804625 -2.1497533514950997 -7.973862222856784
upperneck 0.37061429271793855 -2.7255261070209187 8.140599633781383
head 3.3185377542663854 -1.0653145794791086 3.647996176204371
rclavicle -9.83829908833226E-15 -1.7577744543801865E-16
rhumerus 1.926958538006168 -12.634685409116228 -67.8181380997032
rradius 18.904876864839856
rwrist 57.52243396610426
rhand -7.430901560135288 21.786315798849945
rfingers 7.125019999999909
rthumb 18.465327916213003 -7.898506964100374
lclavicle -5.331142901665234E-15 4.923005006653409E-15
lhumerus -25.925973916186457 -2.4495352459895727 80.88716296617028
lradius 37.12236085923132
lwrist -38.14225886585298
lhand -9.093298248398492 14.947137784930908
lfingers 7.028791225791263
lthumb 16.49025547558785 78.44224869925486
rfemur -9.116326961691907 5.3476526508918445 30.938529001044785
rtibia 34.846762235040174
rfoot -0.39509806756431054 -2.547717762130434
rtoes 16.151954996644868
lfemur 12.07456266666704 -2.638319133739245 -30.756024054029233
ltibia 19.949720195598236
lfoot -18.579040322483685 -0.19738780619122753
ltoes -0.6078574424537528
